<svg width="42" height="42" viewBox="0 0 42 42" fill="none" xmlns="http://www.w3.org/2000/svg">
<path d="M35.7126 5.38525H6.25349C5.54503 5.38525 4.97266 5.95763 4.97266 6.66609V36.1252C4.97266 36.8337 5.54503 37.406 6.25349 37.406H35.7126C36.4211 37.406 36.9934 36.8337 36.9934 36.1252V6.66609C36.9934 5.95763 36.4211 5.38525 35.7126 5.38525ZM32.0142 14.7313H29.4565C27.4512 14.7313 27.063 15.6839 27.063 17.0848V20.1708H31.8501L31.2257 25.002H27.063V37.406H22.0718V25.006H17.897V20.1708H22.0718V16.6085C22.0718 12.4739 24.5974 10.2204 28.2878 10.2204C30.0569 10.2204 31.5739 10.3525 32.0182 10.4125V14.7313H32.0142Z" fill="#2091F9"/>
</svg>
