<svg width="50" height="50" viewBox="0 0 50 50" fill="none" xmlns="http://www.w3.org/2000/svg">
<path d="M19.3944 13.9792C19.2013 14.1719 19.0481 14.4009 18.9435 14.6529C18.839 14.9049 18.7852 15.1751 18.7852 15.4479C18.7852 15.7208 18.839 15.991 18.9435 16.243C19.0481 16.495 19.2013 16.724 19.3944 16.9167L27.4777 25L19.3944 33.0834C19.0049 33.4729 18.786 34.0012 18.786 34.5521C18.786 35.103 19.0049 35.6313 19.3944 36.0209C19.784 36.4104 20.3123 36.6292 20.8632 36.6292C21.4141 36.6292 21.9424 36.4104 22.3319 36.0209L31.8944 26.4584C32.0875 26.2656 32.2408 26.0367 32.3453 25.7847C32.4499 25.5326 32.5037 25.2625 32.5037 24.9896C32.5037 24.7168 32.4499 24.4466 32.3453 24.1946C32.2408 23.9425 32.0875 23.7136 31.8944 23.5209L22.3319 13.9584C21.5402 13.1667 20.2069 13.1667 19.3944 13.9792Z" fill="black"/>
</svg>
