<svg width="50" height="50" viewBox="0 0 50 50" fill="none" xmlns="http://www.w3.org/2000/svg">
<path d="M30.6056 13.9792C30.7987 14.1719 30.9519 14.4009 31.0565 14.6529C31.161 14.9049 31.2148 15.1751 31.2148 15.4479C31.2148 15.7208 31.161 15.991 31.0565 16.243C30.9519 16.495 30.7987 16.724 30.6056 16.9167L22.5223 25L30.6056 33.0834C30.9951 33.4729 31.214 34.0012 31.214 34.5521C31.214 35.103 30.9951 35.6313 30.6056 36.0209C30.216 36.4104 29.6877 36.6292 29.1368 36.6292C28.5859 36.6292 28.0576 36.4104 27.6681 36.0209L18.1056 26.4584C17.9125 26.2656 17.7592 26.0367 17.6547 25.7847C17.5501 25.5326 17.4963 25.2625 17.4963 24.9896C17.4963 24.7168 17.5501 24.4466 17.6547 24.1946C17.7592 23.9425 17.9125 23.7136 18.1056 23.5209L27.6681 13.9584C28.4598 13.1667 29.7931 13.1667 30.6056 13.9792Z" fill="black"/>
</svg>
